<svg xmlns="http://www.w3.org/2000/svg" viewBox="0 0 1400 520" width="1400" height="520">
<rect width="1400" height="520" fill="#fff"/>
<g transform="translate(-230,-150) "><g transform="translate(0,0)" fill="none" stroke="#23272B" stroke-width="28" stroke-linecap="round" stroke-linejoin="round">
<path d="M305,300 V560"/>
<path d="M305,300 H408 A48,48 0 0 1 408,396 H368"/>
<path d="M305,560 H408 A48,48 0 0 0 408,464 H368"/>
<path d="M322,430 H478"/><path d="M522,430 H575"/>
<path d="M575,300 V560"/><path d="M695,300 V560"/><path d="M575,430 H695"/>
<path d="M505,300 V250" stroke-width="16"/>
<path d="M478,300 L505,250 L532,300" stroke-width="10"/>
</g><g transform="translate(0,0)"><circle cx="355" cy="396" r="23" fill="#23272B"/><circle cx="355" cy="396" r="9" fill="#fff"/><circle cx="355" cy="464" r="23" fill="#23272B"/><circle cx="355" cy="464" r="9" fill="#fff"/><circle cx="575" cy="300" r="23" fill="#23272B"/><circle cx="575" cy="300" r="9" fill="#fff"/><circle cx="575" cy="560" r="23" fill="#23272B"/><circle cx="575" cy="560" r="9" fill="#fff"/><circle cx="695" cy="300" r="23" fill="#23272B"/><circle cx="695" cy="300" r="9" fill="#fff"/><circle cx="695" cy="560" r="23" fill="#23272B"/><circle cx="695" cy="560" r="9" fill="#fff"/><path d="M476,405 L516,430 L476,455 Z" fill="#F26B1D" stroke="#F26B1D" stroke-width="6" stroke-linejoin="round"/><rect x="518" y="403" width="11" height="54" rx="5" fill="#F26B1D"/><circle cx="505" cy="243" r="12" fill="#F26B1D"/><path d="M479.0,221.1 A34,34 0 0 0 479.0,264.9" fill="none" stroke="#F26B1D" stroke-width="10" stroke-linecap="round"/><path d="M531.0,221.1 A34,34 0 0 1 531.0,264.9" fill="none" stroke="#F26B1D" stroke-width="10" stroke-linecap="round"/><path d="M459.0,204.4 A60,60 0 0 0 459.0,281.6" fill="none" stroke="#F26B1D" stroke-width="10" stroke-linecap="round"/><path d="M551.0,204.4 A60,60 0 0 1 551.0,281.6" fill="none" stroke="#F26B1D" stroke-width="10" stroke-linecap="round"/></g></g>
<g transform="translate(560,320)"><path d="M388 511Q490 511 532.0 451.0Q574 391 574 254Q574 200 563.5 152.5Q553 105 526.0 67.5Q499 30 448.5 9.0Q398 -12 317 -12Q290 -12 253.5 -9.5Q217 -7 178.5 -2.0Q140 3 106.0 10.5Q72 18 50 28V700H231L233 551Q234 516 230 482Q226 456 219 433Q235 448 253 462Q282 484 316.5 497.5Q351 511 388 511ZM231 120Q252 116 275 115Q297 113 313 113Q341 115 357.0 126.5Q373 138 380.0 168.0Q387 198 387 253Q387 301 381.0 326.5Q375 352 358.5 362.0Q342 372 313.0 372.0Q284 372 262 363Q247 356 231 347Z" transform="translate(0.00,0.00) scale(0.15000,-0.15000)" fill="#23272B"/>
<path d="M193 497 209 423Q256 465 306 488Q358 511 407 511H435L419 344H371Q341 344 305 338Q275 333 233 323V0H51V497Z" transform="translate(91.05,0.00) scale(0.15000,-0.15000)" fill="#23272B"/>
<path d="M236 497V0H55V497ZM184 721Q237 721 237 667V615Q237 561 184 561H106Q53 561 53 615V667Q53 721 106 721Z" transform="translate(157.05,0.00) scale(0.15000,-0.15000)" fill="#23272B"/>
<path d="M292 511Q321 511 356.0 508.0Q391 505 426.0 497.5Q461 490 489 477L471 364Q426 364 390.0 364.5Q354 365 323 365Q285 365 263.0 355.5Q241 346 232.0 321.0Q223 296 223 249Q223 203 232.0 177.5Q241 152 263.0 142.5Q285 133 323 133Q340 133 365.0 133.5Q390 134 420.0 135.5Q450 137 480 140L497 26Q454 5 399.5 -3.5Q345 -12 290 -12Q196 -12 139.0 13.5Q82 39 57.0 96.5Q32 154 32 249Q32 346 57.5 403.0Q83 460 140.0 485.5Q197 511 292 511Z" transform="translate(200.70,0.00) scale(0.15000,-0.15000)" fill="#23272B"/>
<path d="M301 511Q399 511 458.0 485.5Q517 460 543.0 402.5Q569 345 569 248Q569 152 543.0 95.5Q517 39 458.0 13.5Q399 -12 301 -12Q203 -12 144.0 13.5Q85 39 59.0 95.5Q33 152 33 248Q33 345 59.0 402.5Q85 460 144.0 485.5Q203 511 301 511ZM301 384Q270 384 253.5 373.0Q237 362 230.0 333.0Q223 304 223 248Q223 193 230.0 164.0Q237 135 253.5 124.5Q270 114 301 114Q332 114 349.0 124.5Q366 135 372.5 164.0Q379 193 379 248Q379 304 372.5 333.0Q366 362 349.0 373.0Q332 384 301 384Z" transform="translate(278.55,0.00) scale(0.15000,-0.15000)" fill="#23272B"/></g><g transform="translate(928.7,320)"><path d="M420 511Q564 511 564 372V0H382V315Q382 339 372.5 348.0Q363 357 339 357Q314 357 286 350Q264 345 233 332V0H51V700H233L234 541Q234 499 228 460Q226 445 223 432Q264 465 308 485Q365 511 420 511Z" transform="translate(0.00,0.00) scale(0.15000,-0.15000)" fill="#F26B1D"/>
<path d="M327 511Q394 511 440.5 493.0Q487 475 511.0 433.0Q535 391 535 317V0H390L373 75Q360 59 343 44Q317 19 280.0 3.0Q243 -13 194 -13Q149 -13 111.0 3.0Q73 19 50.5 50.0Q28 81 28 128V178Q28 238 70.5 271.5Q113 305 186 305H353V318Q352 349 337.5 362.5Q323 376 285 376Q246 376 189.0 374.5Q132 373 70 369L54 486Q91 493 140.5 498.5Q190 504 240.0 507.5Q290 511 327 511ZM353 213H249Q226 212 215.5 201.5Q205 191 205 173V154Q205 135 217.5 124.5Q230 114 255.0 114.0Q280 114 308 125Q331 134 353 148Z" transform="translate(91.80,0.00) scale(0.15000,-0.15000)" fill="#F26B1D"/>
<path d="M694 511Q763 511 799.0 475.5Q835 440 835 372V0H654V315Q654 338 645.0 347.5Q636 357 612 357Q599 357 586.0 354.5Q573 352 557 345Q546 340 531 333V0H356V315Q356 339 345.5 348.0Q335 357 312 357Q300 357 286.5 354.5Q273 352 256 345Q246 341 232 334V0H51V497H194L209 423Q252 465 293 488Q336 511 392 511Q460 511 495 476Q512 459 521 433Q559 468 595 488Q639 511 694 511Z" transform="translate(178.95,0.00) scale(0.15000,-0.15000)" fill="#F26B1D"/>
<path d="M252 511Q291 511 335.5 508.0Q380 505 423.0 501.0Q466 497 497 490L485 382Q436 382 386.5 382.5Q337 383 291 383Q255 383 237.0 382.0Q219 381 212.5 376.5Q206 372 206 360Q206 345 219.0 340.0Q232 335 267 325L389 295Q454 278 485.0 245.5Q516 213 516 148Q516 86 492.5 51.5Q469 17 417.0 3.0Q365 -11 282 -11Q248 -11 182.0 -8.0Q116 -5 38 8L49 117Q64 117 92.5 116.5Q121 116 156 116H225Q274 116 299.0 117.5Q324 119 332.5 125.0Q341 131 341 143Q341 158 326.0 163.5Q311 169 273 179L156 210Q105 224 77.5 246.0Q50 268 40.0 298.0Q30 328 30 367Q30 416 51.0 447.5Q72 479 120.5 495.0Q169 511 252 511Z" transform="translate(311.40,0.00) scale(0.15000,-0.15000)" fill="#F26B1D"/></g>
<path d="M70 0V700H383Q536 700 618.5 630.5Q701 561 701 441Q701 362 663 305Q627 250 564 220L715 0H503L376 186H268V0ZM268 339H378Q440 339 470.5 366.0Q501 393 501 441Q501 490 470.5 517.0Q440 544 378 544H268Z" transform="translate(585.97,385.00) scale(0.03400,-0.03400)" fill="#23272B"/>
<path d="M-14 0 295 700H490L800 0H594L539 136H243L188 0ZM481 282 391 506 301 282Z" transform="translate(614.13,385.00) scale(0.03400,-0.03400)" fill="#23272B"/>
<path d="M70 0V700H401Q517 700 605.0 657.0Q693 614 742.5 536.0Q792 458 792 350Q792 243 742.5 164.5Q693 86 605.0 43.0Q517 0 401 0ZM268 158H393Q453 158 497.5 180.5Q542 203 567.0 246.5Q592 290 592 350Q592 411 567.0 454.0Q542 497 497.5 519.5Q453 542 393 542H268Z" transform="translate(643.86,385.00) scale(0.03400,-0.03400)" fill="#23272B"/>
<path d="M70 0V700H268V0Z" transform="translate(674.94,385.00) scale(0.03400,-0.03400)" fill="#23272B"/>
<path d="M423 -14Q339 -14 268.0 13.0Q197 40 144.5 89.5Q92 139 63.0 205.0Q34 271 34 350Q34 429 63.0 495.0Q92 561 144.5 610.5Q197 660 268.0 687.0Q339 714 423 714Q508 714 578.5 687.0Q649 660 701.0 610.5Q753 561 782.5 495.0Q812 429 812 350Q812 271 782.5 204.5Q753 138 701.0 89.0Q649 40 578.5 13.0Q508 -14 423 -14ZM423 150Q463 150 497.5 164.0Q532 178 557.5 204.5Q583 231 597.5 268.0Q612 305 612 350Q612 396 597.5 432.5Q583 469 557.5 495.5Q532 522 497.5 536.0Q463 550 423 550Q383 550 348.5 536.0Q314 522 288.5 495.5Q263 469 248.5 432.5Q234 396 234 350Q234 305 248.5 268.0Q263 231 288.5 204.5Q314 178 348.5 164.0Q383 150 423 150Z" transform="translate(689.47,385.00) scale(0.03400,-0.03400)" fill="#23272B"/>
<path d="M-14 0 295 700H490L800 0H594L539 136H243L188 0ZM481 282 391 506 301 282Z" transform="translate(721.23,385.00) scale(0.03400,-0.03400)" fill="#23272B"/>
<path d="M70 0V700H619V547H268V393H577V240H268V0Z" transform="translate(750.96,385.00) scale(0.03400,-0.03400)" fill="#23272B"/>
<path d="M70 0V700H268V0Z" transform="translate(775.78,385.00) scale(0.03400,-0.03400)" fill="#23272B"/>
<path d="M419 -14Q336 -14 265.5 12.5Q195 39 143.5 88.0Q92 137 63.0 203.5Q34 270 34 350Q34 430 63.0 496.5Q92 563 143.5 612.0Q195 661 265.5 687.5Q336 714 419 714Q516 714 592.5 680.0Q669 646 720 582L594 468Q560 508 519.5 529.0Q479 550 429 550Q386 550 350.0 536.0Q314 522 288.5 495.5Q263 469 248.5 432.0Q234 395 234 350Q234 305 248.5 268.0Q263 231 288.5 204.5Q314 178 350.0 164.0Q386 150 429 150Q479 150 519.5 171.0Q560 192 594 232L720 118Q669 55 592.5 20.5Q516 -14 419 -14Z" transform="translate(790.31,385.00) scale(0.03400,-0.03400)" fill="#23272B"/>
<path d="M70 0V700H268V0Z" transform="translate(818.13,385.00) scale(0.03400,-0.03400)" fill="#23272B"/>
<path d="M423 -14Q339 -14 268.0 13.0Q197 40 144.5 89.5Q92 139 63.0 205.0Q34 271 34 350Q34 429 63.0 495.0Q92 561 144.5 610.5Q197 660 268.0 687.0Q339 714 423 714Q508 714 578.5 687.0Q649 660 701.0 610.5Q753 561 782.5 495.0Q812 429 812 350Q812 271 782.5 204.5Q753 138 701.0 89.0Q649 40 578.5 13.0Q508 -14 423 -14ZM423 150Q463 150 497.5 164.0Q532 178 557.5 204.5Q583 231 597.5 268.0Q612 305 612 350Q612 396 597.5 432.5Q583 469 557.5 495.5Q532 522 497.5 536.0Q463 550 423 550Q383 550 348.5 536.0Q314 522 288.5 495.5Q263 469 248.5 432.5Q234 396 234 350Q234 305 248.5 268.0Q263 231 288.5 204.5Q314 178 348.5 164.0Q383 150 423 150ZM325 757 459 909H649L461 757Z" transform="translate(832.66,385.00) scale(0.03400,-0.03400)" fill="#23272B"/>
<path d="M70 0V700H233L542 327V700H736V0H573L264 373V0Z" transform="translate(864.42,385.00) scale(0.03400,-0.03400)" fill="#23272B"/>
<path d="M161 172Q112 172 79.5 203.5Q47 235 47 286Q47 337 79.5 368.0Q112 399 161 399Q212 399 243.5 368.0Q275 337 275 286Q275 235 243.5 203.5Q212 172 161 172Z" transform="translate(907.72,385.00) scale(0.03400,-0.03400)" fill="#23272B"/>
<path d="M538 0V273H268V0H70V700H268V437H538V700H736V0Z" transform="translate(934.59,385.00) scale(0.03400,-0.03400)" fill="#23272B"/>
<path d="M-14 0 295 700H490L800 0H594L539 136H243L188 0ZM481 282 391 506 301 282Z" transform="translate(965.00,385.00) scale(0.03400,-0.03400)" fill="#23272B"/>
<path d="M35 0V124L388 543H44V700H647V576L294 157H662V0Z" transform="translate(994.72,385.00) scale(0.03400,-0.03400)" fill="#23272B"/>
<path d="M70 0V700H268V157H602V0Z" transform="translate(1020.81,385.00) scale(0.03400,-0.03400)" fill="#23272B"/>
<path d="M423 -14Q339 -14 268.0 13.0Q197 40 144.5 89.5Q92 139 63.0 205.0Q34 271 34 350Q34 429 63.0 495.0Q92 561 144.5 610.5Q197 660 268.0 687.0Q339 714 423 714Q508 714 578.5 687.0Q649 660 701.0 610.5Q753 561 782.5 495.0Q812 429 812 350Q812 271 782.5 204.5Q753 138 701.0 89.0Q649 40 578.5 13.0Q508 -14 423 -14ZM423 150Q463 150 497.5 164.0Q532 178 557.5 204.5Q583 231 597.5 268.0Q612 305 612 350Q612 396 597.5 432.5Q583 469 557.5 495.5Q532 522 497.5 536.0Q463 550 423 550Q383 550 348.5 536.0Q314 522 288.5 495.5Q263 469 248.5 432.5Q234 396 234 350Q234 305 248.5 268.0Q263 231 288.5 204.5Q314 178 348.5 164.0Q383 150 423 150Z" transform="translate(1044.55,385.00) scale(0.03400,-0.03400)" fill="#23272B"/>
<path d="M219 0V543H4V700H631V543H417V0Z" transform="translate(1089.21,385.00) scale(0.03400,-0.03400)" fill="#23272B"/>
<path d="M393 -14Q238 -14 151.0 71.0Q64 156 64 312V700H262V318Q262 228 297.5 189.0Q333 150 395 150Q457 150 492.0 189.0Q527 228 527 318V700H722V312Q722 156 635.0 71.0Q548 -14 393 -14ZM297 757 431 909H621L433 757Z" transform="translate(1113.80,385.00) scale(0.03400,-0.03400)" fill="#23272B"/>
<path d="M70 0V700H233L479 296L719 700H882L884 0H702L700 371L520 69H432L253 361V0Z" transform="translate(1156.41,385.00) scale(0.03400,-0.03400)" fill="#23272B"/>
<path d="M70 0V700H268V0Z" transform="translate(1191.85,385.00) scale(0.03400,-0.03400)" fill="#23272B"/>
<path d="M316 -14Q230 -14 150.5 7.5Q71 29 21 63L86 209Q133 179 194.5 159.5Q256 140 317 140Q358 140 383.0 147.5Q408 155 419.5 167.5Q431 180 431 197Q431 221 409.0 235.0Q387 249 352.0 258.0Q317 267 274.5 276.0Q232 285 189.5 299.0Q147 313 112.0 335.5Q77 358 55.0 394.5Q33 431 33 487Q33 550 67.5 601.0Q102 652 171.0 683.0Q240 714 343 714Q412 714 478.5 698.5Q545 683 597 653L536 506Q486 533 437.0 546.5Q388 560 342 560Q301 560 276.0 551.5Q251 543 240.0 529.0Q229 515 229 497Q229 474 250.5 460.5Q272 447 307.5 438.5Q343 430 385.5 421.0Q428 412 470.5 398.5Q513 385 548.0 362.5Q583 340 604.5 303.5Q626 267 626 212Q626 151 591.5 99.5Q557 48 488.5 17.0Q420 -14 316 -14Z" transform="translate(1206.38,385.00) scale(0.03400,-0.03400)" fill="#23272B"/>
<path d="M70 0V700H233L479 296L719 700H882L884 0H702L700 371L520 69H432L253 361V0Z" transform="translate(1231.37,385.00) scale(0.03400,-0.03400)" fill="#23272B"/>
<path d="M423 -14Q339 -14 268.0 13.0Q197 40 144.5 89.5Q92 139 63.0 205.0Q34 271 34 350Q34 429 63.0 495.0Q92 561 144.5 610.5Q197 660 268.0 687.0Q339 714 423 714Q508 714 578.5 687.0Q649 660 701.0 610.5Q753 561 782.5 495.0Q812 429 812 350Q812 271 782.5 204.5Q753 138 701.0 89.0Q649 40 578.5 13.0Q508 -14 423 -14ZM423 150Q463 150 497.5 164.0Q532 178 557.5 204.5Q583 231 597.5 268.0Q612 305 612 350Q612 396 597.5 432.5Q583 469 557.5 495.5Q532 522 497.5 536.0Q463 550 423 550Q383 550 348.5 536.0Q314 522 288.5 495.5Q263 469 248.5 432.5Q234 396 234 350Q234 305 248.5 268.0Q263 231 288.5 204.5Q314 178 348.5 164.0Q383 150 423 150Z" transform="translate(1266.81,385.00) scale(0.03400,-0.03400)" fill="#23272B"/>
<rect x="818.3" y="425.5" width="42" height="9" rx="4.5" fill="#F26B1D"/><circle cx="878.8" cy="430" r="4.5" fill="#F26B1D"/><circle cx="901.8" cy="430" r="4.5" fill="#F26B1D"/><circle cx="924.8" cy="430" r="4.5" fill="#F26B1D"/><circle cx="989.8" cy="430" r="4.5" fill="#F26B1D"/><circle cx="1012.8" cy="430" r="4.5" fill="#F26B1D"/><circle cx="1035.8" cy="430" r="4.5" fill="#F26B1D"/><circle cx="1058.8" cy="430" r="4.5" fill="#F26B1D"/>
</svg>